<svg width="24" height="24" viewBox="0 0 24 24" fill="none" xmlns="http://www.w3.org/2000/svg">
<path d="M13.9783 12L23.9275 0.482254C24.0943 0.290843 23.954 4.57764e-05 23.6963 4.57764e-05H20.6717C20.4936 4.57764e-05 20.323 0.0773463 20.2055 0.209862L11.9998 9.71047L3.79409 0.209862C3.68038 0.0773463 3.50982 4.57764e-05 3.32789 4.57764e-05H0.303335C0.0456028 4.57764e-05 -0.0946339 0.290843 0.0721338 0.482254L10.0213 12L0.0721338 23.5178C0.0347763 23.5605 0.0108101 23.6127 0.00307948 23.6682C-0.00465109 23.7237 0.00417875 23.7802 0.0285216 23.8309C0.0528644 23.8817 0.0916978 23.9246 0.14041 23.9546C0.189123 23.9846 0.245669 24.0003 0.303335 24H3.32789C3.50603 24 3.67659 23.9227 3.79409 23.7902L11.9998 14.2896L20.2055 23.7902C20.3193 23.9227 20.4898 24 20.6717 24H23.6963C23.954 24 24.0943 23.7092 23.9275 23.5178L13.9783 12Z" fill="white"/>
</svg>
