<svg width="25" height="18" viewBox="0 0 25 18" fill="none" xmlns="http://www.w3.org/2000/svg">
<path d="M24.0027 8.2628C21.3757 2.76616 17.4047 -6.10352e-05 12.0813 -6.10352e-05C6.75527 -6.10352e-05 2.78703 2.76615 0.160019 8.26556C0.0546482 8.48717 0 8.72922 0 8.97431C0 9.2194 0.0546482 9.46145 0.160019 9.68307C2.78703 15.1797 6.75804 17.9459 12.0813 17.9459C17.4074 17.9459 21.3757 15.1797 24.0027 9.68032C24.2161 9.23442 24.2161 8.71696 24.0027 8.2628ZM12.0813 15.9642C7.61154 15.9642 4.33886 13.7127 2.03052 8.97294C4.33886 4.23321 7.61154 1.98171 12.0813 1.98171C16.5512 1.98171 19.8238 4.23321 22.1322 8.97294C19.8266 13.7127 16.5539 15.9642 12.0813 15.9642ZM11.9705 4.12862C9.27698 4.12862 7.09334 6.29755 7.09334 8.97294C7.09334 11.6483 9.27698 13.8173 11.9705 13.8173C14.664 13.8173 16.8477 11.6483 16.8477 8.97294C16.8477 6.29755 14.664 4.12862 11.9705 4.12862ZM11.9705 12.0557C10.2552 12.0557 8.86686 10.6767 8.86686 8.97294C8.86686 7.26917 10.2552 5.89019 11.9705 5.89019C13.6858 5.89019 15.0742 7.26917 15.0742 8.97294C15.0742 10.6767 13.6858 12.0557 11.9705 12.0557Z" fill="#0E0E0E"/>
</svg>
