<svg width="321" height="62" viewBox="0 0 321 62" fill="none" xmlns="http://www.w3.org/2000/svg">
<path d="M13.644 13.6086L13.626 4.42855L9.072 12.0786H8.244L3.69 4.48255V13.6086H1.962V1.00855H3.438L8.694 9.86455L13.878 1.00855H15.354L15.372 13.6086H13.644ZM23.092 13.7166C22.144 13.7166 21.292 13.5066 20.536 13.0866C19.78 12.6666 19.186 12.0906 18.754 11.3586C18.334 10.6146 18.124 9.77455 18.124 8.83855C18.124 7.90255 18.334 7.06855 18.754 6.33655C19.186 5.59255 19.78 5.01655 20.536 4.60855C21.292 4.18855 22.144 3.97855 23.092 3.97855C24.04 3.97855 24.886 4.18855 25.63 4.60855C26.386 5.01655 26.974 5.59255 27.394 6.33655C27.826 7.06855 28.042 7.90255 28.042 8.83855C28.042 9.77455 27.826 10.6146 27.394 11.3586C26.974 12.0906 26.386 12.6666 25.63 13.0866C24.886 13.5066 24.04 13.7166 23.092 13.7166ZM23.092 12.2046C23.704 12.2046 24.25 12.0666 24.73 11.7906C25.222 11.5026 25.606 11.1066 25.882 10.6026C26.158 10.0866 26.296 9.49855 26.296 8.83855C26.296 8.17855 26.158 7.59655 25.882 7.09255C25.606 6.57655 25.222 6.18055 24.73 5.90455C24.25 5.62855 23.704 5.49055 23.092 5.49055C22.48 5.49055 21.928 5.62855 21.436 5.90455C20.956 6.18055 20.572 6.57655 20.284 7.09255C20.008 7.59655 19.87 8.17855 19.87 8.83855C19.87 9.49855 20.008 10.0866 20.284 10.6026C20.572 11.1066 20.956 11.5026 21.436 11.7906C21.928 12.0666 22.48 12.2046 23.092 12.2046ZM34.6953 13.7166C33.7233 13.7166 32.8533 13.5066 32.0853 13.0866C31.3293 12.6666 30.7353 12.0906 30.3033 11.3586C29.8713 10.6146 29.6553 9.77455 29.6553 8.83855C29.6553 7.90255 29.8713 7.06855 30.3033 6.33655C30.7353 5.59255 31.3293 5.01655 32.0853 4.60855C32.8533 4.18855 33.7233 3.97855 34.6953 3.97855C35.5593 3.97855 36.3273 4.15255 36.9993 4.50055C37.6833 4.84855 38.2113 5.35255 38.5833 6.01255L37.2693 6.85855C36.9693 6.40255 36.5973 6.06055 36.1533 5.83255C35.7093 5.60455 35.2173 5.49055 34.6773 5.49055C34.0533 5.49055 33.4893 5.62855 32.9853 5.90455C32.4933 6.18055 32.1033 6.57655 31.8153 7.09255C31.5393 7.59655 31.4013 8.17855 31.4013 8.83855C31.4013 9.51055 31.5393 10.1046 31.8153 10.6206C32.1033 11.1246 32.4933 11.5146 32.9853 11.7906C33.4893 12.0666 34.0533 12.2046 34.6773 12.2046C35.2173 12.2046 35.7093 12.0906 36.1533 11.8626C36.5973 11.6346 36.9693 11.2926 37.2693 10.8366L38.5833 11.6646C38.2113 12.3246 37.6833 12.8346 36.9993 13.1946C36.3273 13.5426 35.5593 13.7166 34.6953 13.7166ZM44.5285 9.57655H42.5485V13.6086H40.8205V4.06855H42.5485V8.10055H44.5645L47.6605 4.06855H49.5145L45.8965 8.65855L49.7665 13.6086H47.7325L44.5285 9.57655ZM55.3479 13.7166C54.3999 13.7166 53.5479 13.5066 52.7919 13.0866C52.0359 12.6666 51.4419 12.0906 51.0099 11.3586C50.5899 10.6146 50.3799 9.77455 50.3799 8.83855C50.3799 7.90255 50.5899 7.06855 51.0099 6.33655C51.4419 5.59255 52.0359 5.01655 52.7919 4.60855C53.5479 4.18855 54.3999 3.97855 55.3479 3.97855C56.2959 3.97855 57.1419 4.18855 57.8859 4.60855C58.6419 5.01655 59.2299 5.59255 59.6499 6.33655C60.0819 7.06855 60.2979 7.90255 60.2979 8.83855C60.2979 9.77455 60.0819 10.6146 59.6499 11.3586C59.2299 12.0906 58.6419 12.6666 57.8859 13.0866C57.1419 13.5066 56.2959 13.7166 55.3479 13.7166ZM55.3479 12.2046C55.9599 12.2046 56.5059 12.0666 56.9859 11.7906C57.4779 11.5026 57.8619 11.1066 58.1379 10.6026C58.4139 10.0866 58.5519 9.49855 58.5519 8.83855C58.5519 8.17855 58.4139 7.59655 58.1379 7.09255C57.8619 6.57655 57.4779 6.18055 56.9859 5.90455C56.5059 5.62855 55.9599 5.49055 55.3479 5.49055C54.7359 5.49055 54.1839 5.62855 53.6919 5.90455C53.2119 6.18055 52.8279 6.57655 52.5399 7.09255C52.2639 7.59655 52.1259 8.17855 52.1259 8.83855C52.1259 9.49855 52.2639 10.0866 52.5399 10.6026C52.8279 11.1066 53.2119 11.5026 53.6919 11.7906C54.1839 12.0666 54.7359 12.2046 55.3479 12.2046ZM69.2911 8.65855C70.5271 8.97055 71.1451 9.74455 71.1451 10.9806C71.1451 11.8206 70.8271 12.4686 70.1911 12.9246C69.5671 13.3806 68.6311 13.6086 67.3831 13.6086H62.7931V4.06855H67.2211C68.3491 4.06855 69.2311 4.28455 69.8671 4.71655C70.5031 5.13655 70.8211 5.73655 70.8211 6.51655C70.8211 7.02055 70.6831 7.45855 70.4071 7.83055C70.1431 8.19055 69.7711 8.46655 69.2911 8.65855ZM64.4851 8.17255H67.0771C67.7371 8.17255 68.2351 8.05255 68.5711 7.81255C68.9191 7.57255 69.0931 7.22455 69.0931 6.76855C69.0931 5.85655 68.4211 5.40055 67.0771 5.40055H64.4851V8.17255ZM67.2571 12.2766C67.9771 12.2766 68.5171 12.1626 68.8771 11.9346C69.2371 11.7066 69.4171 11.3526 69.4171 10.8726C69.4171 10.3806 69.2491 10.0146 68.9131 9.77455C68.5891 9.53455 68.0731 9.41455 67.3651 9.41455H64.4851V12.2766H67.2571ZM78.0078 13.7166C77.0358 13.7166 76.1658 13.5066 75.3978 13.0866C74.6418 12.6666 74.0478 12.0906 73.6158 11.3586C73.1838 10.6146 72.9678 9.77455 72.9678 8.83855C72.9678 7.90255 73.1838 7.06855 73.6158 6.33655C74.0478 5.59255 74.6418 5.01655 75.3978 4.60855C76.1658 4.18855 77.0358 3.97855 78.0078 3.97855C78.8718 3.97855 79.6398 4.15255 80.3118 4.50055C80.9958 4.84855 81.5238 5.35255 81.8958 6.01255L80.5818 6.85855C80.2818 6.40255 79.9098 6.06055 79.4658 5.83255C79.0218 5.60455 78.5298 5.49055 77.9898 5.49055C77.3658 5.49055 76.8018 5.62855 76.2978 5.90455C75.8058 6.18055 75.4158 6.57655 75.1278 7.09255C74.8518 7.59655 74.7138 8.17855 74.7138 8.83855C74.7138 9.51055 74.8518 10.1046 75.1278 10.6206C75.4158 11.1246 75.8058 11.5146 76.2978 11.7906C76.8018 12.0666 77.3658 12.2046 77.9898 12.2046C78.5298 12.2046 79.0218 12.0906 79.4658 11.8626C79.9098 11.6346 80.2818 11.2926 80.5818 10.8366L81.8958 11.6646C81.5238 12.3246 80.9958 12.8346 80.3118 13.1946C79.6398 13.5426 78.8718 13.7166 78.0078 13.7166ZM87.841 9.57655H85.861V13.6086H84.133V4.06855H85.861V8.10055H87.877L90.973 4.06855H92.827L89.209 8.65855L93.079 13.6086H91.045L87.841 9.57655ZM94.8908 4.06855H96.6188V11.0166L102.469 4.06855H104.035V13.6086H102.307V6.66055L96.4748 13.6086H94.8908V4.06855ZM107.389 4.06855H109.117V11.0166L114.967 4.06855H116.533V13.6086H114.805V6.66055L108.973 13.6086H107.389V4.06855ZM111.853 2.82655C110.965 2.82655 110.275 2.61655 109.783 2.19655C109.291 1.76455 109.039 1.14655 109.027 0.34255H110.197C110.209 0.78655 110.359 1.14655 110.647 1.42255C110.947 1.68655 111.343 1.81855 111.835 1.81855C112.327 1.81855 112.723 1.68655 113.023 1.42255C113.323 1.14655 113.479 0.78655 113.491 0.34255H114.697C114.685 1.14655 114.427 1.76455 113.923 2.19655C113.419 2.61655 112.729 2.82655 111.853 2.82655ZM133.253 2.57455H126.773L126.791 13.6086H125.009V1.00855H133.271L133.253 2.57455ZM136.524 13.7166C135.576 13.7166 134.724 13.5066 133.968 13.0866C133.212 12.6666 132.618 12.0906 132.186 11.3586C131.766 10.6146 131.556 9.77455 131.556 8.83855C131.556 7.90255 131.766 7.06855 132.186 6.33655C132.618 5.59255 133.212 5.01655 133.968 4.60855C134.724 4.18855 135.576 3.97855 136.524 3.97855C137.472 3.97855 138.318 4.18855 139.062 4.60855C139.818 5.01655 140.406 5.59255 140.826 6.33655C141.258 7.06855 141.474 7.90255 141.474 8.83855C141.474 9.77455 141.258 10.6146 140.826 11.3586C140.406 12.0906 139.818 12.6666 139.062 13.0866C138.318 13.5066 137.472 13.7166 136.524 13.7166ZM136.524 12.2046C137.136 12.2046 137.682 12.0666 138.162 11.7906C138.654 11.5026 139.038 11.1066 139.314 10.6026C139.59 10.0866 139.728 9.49855 139.728 8.83855C139.728 8.17855 139.59 7.59655 139.314 7.09255C139.038 6.57655 138.654 6.18055 138.162 5.90455C137.682 5.62855 137.136 5.49055 136.524 5.49055C135.912 5.49055 135.36 5.62855 134.868 5.90455C134.388 6.18055 134.004 6.57655 133.716 7.09255C133.44 7.59655 133.302 8.17855 133.302 8.83855C133.302 9.49855 133.44 10.0866 133.716 10.6026C134.004 11.1066 134.388 11.5026 134.868 11.7906C135.36 12.0666 135.912 12.2046 136.524 12.2046ZM148.127 13.7166C147.155 13.7166 146.285 13.5066 145.517 13.0866C144.761 12.6666 144.167 12.0906 143.735 11.3586C143.303 10.6146 143.087 9.77455 143.087 8.83855C143.087 7.90255 143.303 7.06855 143.735 6.33655C144.167 5.59255 144.761 5.01655 145.517 4.60855C146.285 4.18855 147.155 3.97855 148.127 3.97855C148.991 3.97855 149.759 4.15255 150.431 4.50055C151.115 4.84855 151.643 5.35255 152.015 6.01255L150.701 6.85855C150.401 6.40255 150.029 6.06055 149.585 5.83255C149.141 5.60455 148.649 5.49055 148.109 5.49055C147.485 5.49055 146.921 5.62855 146.417 5.90455C145.925 6.18055 145.535 6.57655 145.247 7.09255C144.971 7.59655 144.833 8.17855 144.833 8.83855C144.833 9.51055 144.971 10.1046 145.247 10.6206C145.535 11.1246 145.925 11.5146 146.417 11.7906C146.921 12.0666 147.485 12.2046 148.109 12.2046C148.649 12.2046 149.141 12.0906 149.585 11.8626C150.029 11.6346 150.401 11.2926 150.701 10.8366L152.015 11.6646C151.643 12.3246 151.115 12.8346 150.431 13.1946C149.759 13.5426 148.991 13.7166 148.127 13.7166ZM162.643 4.06855L158.017 14.5626C157.609 15.5346 157.129 16.2186 156.577 16.6146C156.037 17.0106 155.383 17.2086 154.615 17.2086C154.147 17.2086 153.691 17.1306 153.247 16.9746C152.815 16.8306 152.455 16.6146 152.167 16.3266L152.905 15.0306C153.397 15.4986 153.967 15.7326 154.615 15.7326C155.035 15.7326 155.383 15.6186 155.659 15.3906C155.947 15.1746 156.205 14.7966 156.433 14.2566L156.739 13.5906L152.527 4.06855H154.327L157.657 11.7006L160.951 4.06855H162.643ZM173.605 12.0966V15.8226H171.985V13.6086H164.011V15.8226H162.373V12.0966H162.877C163.489 12.0606 163.909 11.6286 164.137 10.8006C164.365 9.97255 164.521 8.80255 164.605 7.29055L164.749 4.06855H172.147V12.0966H173.605ZM166.189 7.41655C166.141 8.61655 166.039 9.61255 165.883 10.4046C165.739 11.1846 165.469 11.7486 165.073 12.0966H170.419V5.58055H166.279L166.189 7.41655ZM179.258 3.97855C180.578 3.97855 181.586 4.30255 182.282 4.95055C182.99 5.59855 183.344 6.56455 183.344 7.84855V13.6086H181.706V12.3486C181.418 12.7926 181.004 13.1346 180.464 13.3746C179.936 13.6026 179.306 13.7166 178.574 13.7166C177.506 13.7166 176.648 13.4586 176 12.9426C175.364 12.4266 175.046 11.7486 175.046 10.9086C175.046 10.0686 175.352 9.39655 175.964 8.89255C176.576 8.37655 177.548 8.11855 178.88 8.11855H181.616V7.77655C181.616 7.03255 181.4 6.46255 180.968 6.06655C180.536 5.67055 179.9 5.47255 179.06 5.47255C178.496 5.47255 177.944 5.56855 177.404 5.76055C176.864 5.94055 176.408 6.18655 176.036 6.49855L175.316 5.20255C175.808 4.80655 176.396 4.50655 177.08 4.30255C177.764 4.08655 178.49 3.97855 179.258 3.97855ZM178.862 12.3846C179.522 12.3846 180.092 12.2406 180.572 11.9526C181.052 11.6526 181.4 11.2326 181.616 10.6926V9.36055H178.952C177.488 9.36055 176.756 9.85255 176.756 10.8366C176.756 11.3166 176.942 11.6946 177.314 11.9706C177.686 12.2466 178.202 12.3846 178.862 12.3846ZM191.513 3.97855C192.437 3.97855 193.265 4.18255 193.997 4.59055C194.729 4.99855 195.299 5.56855 195.707 6.30055C196.127 7.03255 196.337 7.87855 196.337 8.83855C196.337 9.79855 196.127 10.6506 195.707 11.3946C195.299 12.1266 194.729 12.6966 193.997 13.1046C193.265 13.5126 192.437 13.7166 191.513 13.7166C190.829 13.7166 190.199 13.5846 189.623 13.3206C189.059 13.0566 188.579 12.6726 188.183 12.1686V17.1006H186.455V4.06855H188.111V5.58055C188.495 5.05255 188.981 4.65655 189.569 4.39255C190.157 4.11655 190.805 3.97855 191.513 3.97855ZM191.369 12.2046C191.981 12.2046 192.527 12.0666 193.007 11.7906C193.499 11.5026 193.883 11.1066 194.159 10.6026C194.447 10.0866 194.591 9.49855 194.591 8.83855C194.591 8.17855 194.447 7.59655 194.159 7.09255C193.883 6.57655 193.499 6.18055 193.007 5.90455C192.527 5.62855 191.981 5.49055 191.369 5.49055C190.769 5.49055 190.223 5.63455 189.731 5.92255C189.251 6.19855 188.867 6.58855 188.579 7.09255C188.303 7.59655 188.165 8.17855 188.165 8.83855C188.165 9.49855 188.303 10.0866 188.579 10.6026C188.855 11.1066 189.239 11.5026 189.731 11.7906C190.223 12.0666 190.769 12.2046 191.369 12.2046ZM203.006 13.7166C202.034 13.7166 201.164 13.5066 200.396 13.0866C199.64 12.6666 199.046 12.0906 198.614 11.3586C198.182 10.6146 197.966 9.77455 197.966 8.83855C197.966 7.90255 198.182 7.06855 198.614 6.33655C199.046 5.59255 199.64 5.01655 200.396 4.60855C201.164 4.18855 202.034 3.97855 203.006 3.97855C203.87 3.97855 204.638 4.15255 205.31 4.50055C205.994 4.84855 206.522 5.35255 206.894 6.01255L205.58 6.85855C205.28 6.40255 204.908 6.06055 204.464 5.83255C204.02 5.60455 203.528 5.49055 202.988 5.49055C202.364 5.49055 201.8 5.62855 201.296 5.90455C200.804 6.18055 200.414 6.57655 200.126 7.09255C199.85 7.59655 199.712 8.17855 199.712 8.83855C199.712 9.51055 199.85 10.1046 200.126 10.6206C200.414 11.1246 200.804 11.5146 201.296 11.7906C201.8 12.0666 202.364 12.2046 202.988 12.2046C203.528 12.2046 204.02 12.0906 204.464 11.8626C204.908 11.6346 205.28 11.2926 205.58 10.8366L206.894 11.6646C206.522 12.3246 205.994 12.8346 205.31 13.1946C204.638 13.5426 203.87 13.7166 203.006 13.7166ZM216.118 5.58055H212.626V13.6086H210.898V5.58055H207.406V4.06855H216.118V5.58055ZM224.383 8.65855C225.619 8.97055 226.237 9.74455 226.237 10.9806C226.237 11.8206 225.919 12.4686 225.283 12.9246C224.659 13.3806 223.723 13.6086 222.475 13.6086H217.885V4.06855H222.313C223.441 4.06855 224.323 4.28455 224.959 4.71655C225.595 5.13655 225.913 5.73655 225.913 6.51655C225.913 7.02055 225.775 7.45855 225.499 7.83055C225.235 8.19055 224.863 8.46655 224.383 8.65855ZM219.577 8.17255H222.169C222.829 8.17255 223.327 8.05255 223.663 7.81255C224.011 7.57255 224.185 7.22455 224.185 6.76855C224.185 5.85655 223.513 5.40055 222.169 5.40055H219.577V8.17255ZM222.349 12.2766C223.069 12.2766 223.609 12.1626 223.969 11.9346C224.329 11.7066 224.509 11.3526 224.509 10.8726C224.509 10.3806 224.341 10.0146 224.005 9.77455C223.681 9.53455 223.165 9.41455 222.457 9.41455H219.577V12.2766H222.349ZM237.564 8.89255C237.564 9.02455 237.552 9.19855 237.528 9.41455H229.788C229.896 10.2546 230.262 10.9326 230.886 11.4486C231.522 11.9526 232.308 12.2046 233.244 12.2046C234.384 12.2046 235.302 11.8206 235.998 11.0526L236.952 12.1686C236.52 12.6726 235.98 13.0566 235.332 13.3206C234.696 13.5846 233.982 13.7166 233.19 13.7166C232.182 13.7166 231.288 13.5126 230.508 13.1046C229.728 12.6846 229.122 12.1026 228.69 11.3586C228.27 10.6146 228.06 9.77455 228.06 8.83855C228.06 7.91455 228.264 7.08055 228.672 6.33655C229.092 5.59255 229.662 5.01655 230.382 4.60855C231.114 4.18855 231.936 3.97855 232.848 3.97855C233.76 3.97855 234.57 4.18855 235.278 4.60855C235.998 5.01655 236.556 5.59255 236.952 6.33655C237.36 7.08055 237.564 7.93255 237.564 8.89255ZM232.848 5.43655C232.02 5.43655 231.324 5.68855 230.76 6.19255C230.208 6.69655 229.884 7.35655 229.788 8.17255H235.908C235.812 7.36855 235.482 6.71455 234.918 6.21055C234.366 5.69455 233.676 5.43655 232.848 5.43655ZM240.244 4.06855H241.972V8.11855H247.408V4.06855H249.136V13.6086H247.408V9.61255H241.972V13.6086H240.244V4.06855ZM252.496 4.06855H254.224V8.11855H259.66V4.06855H261.388V13.6086H259.66V9.61255H254.224V13.6086H252.496V4.06855ZM269.05 7.30855C270.25 7.32055 271.168 7.59655 271.804 8.13655C272.44 8.67655 272.758 9.43855 272.758 10.4226C272.758 11.4546 272.41 12.2526 271.714 12.8166C271.03 13.3686 270.046 13.6386 268.762 13.6266L264.748 13.6086V4.06855H266.476V7.29055L269.05 7.30855ZM274.18 4.06855H275.908V13.6086H274.18V4.06855ZM268.636 12.3126C269.416 12.3246 270.004 12.1686 270.4 11.8446C270.808 11.5206 271.012 11.0406 271.012 10.4046C271.012 9.78055 270.814 9.32455 270.418 9.03655C270.022 8.74855 269.428 8.59855 268.636 8.58655L266.476 8.55055V12.2946L268.636 12.3126ZM279.268 4.06855H280.996V11.0166L286.846 4.06855H288.412V13.6086H286.684V6.66055L280.852 13.6086H279.268V4.06855ZM283.732 2.82655C282.844 2.82655 282.154 2.61655 281.662 2.19655C281.17 1.76455 280.918 1.14655 280.906 0.34255H282.076C282.088 0.78655 282.238 1.14655 282.526 1.42255C282.826 1.68655 283.222 1.81855 283.714 1.81855C284.206 1.81855 284.602 1.68655 284.902 1.42255C285.202 1.14655 285.358 0.78655 285.37 0.34255H286.576C286.564 1.14655 286.306 1.76455 285.802 2.19655C285.298 2.61655 284.608 2.82655 283.732 2.82655ZM13.644 35.6086L13.626 26.4286L9.072 34.0786H8.244L3.69 26.4826V35.6086H1.962V23.0086H3.438L8.694 31.8646L13.878 23.0086H15.354L15.372 35.6086H13.644ZM27.628 30.8926C27.628 31.0246 27.616 31.1986 27.592 31.4146H19.852C19.96 32.2546 20.326 32.9326 20.95 33.4486C21.586 33.9526 22.372 34.2046 23.308 34.2046C24.448 34.2046 25.366 33.8206 26.062 33.0526L27.016 34.1686C26.584 34.6726 26.044 35.0566 25.396 35.3206C24.76 35.5846 24.046 35.7166 23.254 35.7166C22.246 35.7166 21.352 35.5126 20.572 35.1046C19.792 34.6846 19.186 34.1026 18.754 33.3586C18.334 32.6146 18.124 31.7746 18.124 30.8386C18.124 29.9146 18.328 29.0806 18.736 28.3366C19.156 27.5926 19.726 27.0166 20.446 26.6086C21.178 26.1886 22 25.9786 22.912 25.9786C23.824 25.9786 24.634 26.1886 25.342 26.6086C26.062 27.0166 26.62 27.5926 27.016 28.3366C27.424 29.0806 27.628 29.9326 27.628 30.8926ZM22.912 27.4366C22.084 27.4366 21.388 27.6886 20.824 28.1926C20.272 28.6966 19.948 29.3566 19.852 30.1726H25.972C25.876 29.3686 25.546 28.7146 24.982 28.2106C24.43 27.6946 23.74 27.4366 22.912 27.4366ZM39.8526 34.0966V37.8226H38.2326V35.6086H30.2586V37.8226H28.6206V34.0966H29.1246C29.7366 34.0606 30.1566 33.6286 30.3846 32.8006C30.6126 31.9726 30.7686 30.8026 30.8526 29.2906L30.9966 26.0686H38.3946V34.0966H39.8526ZM32.4366 29.4166C32.3886 30.6166 32.2866 31.6126 32.1306 32.4046C31.9866 33.1846 31.7166 33.7486 31.3206 34.0966H36.6666V27.5806H32.5266L32.4366 29.4166ZM42.1037 26.0686H43.8317V33.0166L49.6817 26.0686H51.2477V35.6086H49.5197V28.6606L43.6877 35.6086H42.1037V26.0686ZM58.3097 31.5766H56.3297V35.6086H54.6017V26.0686H56.3297V30.1006H58.3457L61.4417 26.0686H63.2957L59.6777 30.6586L63.5477 35.6086H61.5137L58.3097 31.5766ZM69.1291 35.7166C68.1811 35.7166 67.3291 35.5066 66.5731 35.0866C65.8171 34.6666 65.2231 34.0906 64.7911 33.3586C64.3711 32.6146 64.1611 31.7746 64.1611 30.8386C64.1611 29.9026 64.3711 29.0686 64.7911 28.3366C65.2231 27.5926 65.8171 27.0166 66.5731 26.6086C67.3291 26.1886 68.1811 25.9786 69.1291 25.9786C70.0771 25.9786 70.9231 26.1886 71.6671 26.6086C72.4231 27.0166 73.0111 27.5926 73.4311 28.3366C73.8631 29.0686 74.0791 29.9026 74.0791 30.8386C74.0791 31.7746 73.8631 32.6146 73.4311 33.3586C73.0111 34.0906 72.4231 34.6666 71.6671 35.0866C70.9231 35.5066 70.0771 35.7166 69.1291 35.7166ZM69.1291 34.2046C69.7411 34.2046 70.2871 34.0666 70.7671 33.7906C71.2591 33.5026 71.6431 33.1066 71.9191 32.6026C72.1951 32.0866 72.3331 31.4986 72.3331 30.8386C72.3331 30.1786 72.1951 29.5966 71.9191 29.0926C71.6431 28.5766 71.2591 28.1806 70.7671 27.9046C70.2871 27.6286 69.7411 27.4906 69.1291 27.4906C68.5171 27.4906 67.9651 27.6286 67.4731 27.9046C66.9931 28.1806 66.6091 28.5766 66.3211 29.0926C66.0451 29.5966 65.9071 30.1786 65.9071 30.8386C65.9071 31.4986 66.0451 32.0866 66.3211 32.6026C66.6091 33.1066 66.9931 33.5026 67.4731 33.7906C67.9651 34.0666 68.5171 34.2046 69.1291 34.2046ZM76.1022 29.9206H80.9442V31.4146H76.1022V29.9206ZM89.6858 35.7526C88.4258 35.7526 87.2858 35.4766 86.2658 34.9246C85.2578 34.3606 84.4658 33.5926 83.8898 32.6206C83.3138 31.6366 83.0258 30.5326 83.0258 29.3086C83.0258 28.0846 83.3138 26.9866 83.8898 26.0146C84.4658 25.0306 85.2638 24.2626 86.2838 23.7106C87.3038 23.1466 88.4438 22.8646 89.7038 22.8646C90.6878 22.8646 91.5878 23.0326 92.4038 23.3686C93.2198 23.6926 93.9158 24.1786 94.4918 24.8266L93.3218 25.9606C92.3738 24.9646 91.1918 24.4666 89.7758 24.4666C88.8398 24.4666 87.9938 24.6766 87.2378 25.0966C86.4818 25.5166 85.8878 26.0986 85.4558 26.8426C85.0358 27.5746 84.8258 28.3966 84.8258 29.3086C84.8258 30.2206 85.0358 31.0486 85.4558 31.7926C85.8878 32.5246 86.4818 33.1006 87.2378 33.5206C87.9938 33.9406 88.8398 34.1506 89.7758 34.1506C91.1798 34.1506 92.3618 33.6466 93.3218 32.6386L94.4918 33.7726C93.9158 34.4206 93.2138 34.9126 92.3858 35.2486C91.5698 35.5846 90.6698 35.7526 89.6858 35.7526ZM103.53 27.5806H100.038V35.6086H98.3101V27.5806H94.8181V26.0686H103.53V27.5806ZM108.961 35.7166C108.013 35.7166 107.161 35.5066 106.405 35.0866C105.649 34.6666 105.055 34.0906 104.623 33.3586C104.203 32.6146 103.993 31.7746 103.993 30.8386C103.993 29.9026 104.203 29.0686 104.623 28.3366C105.055 27.5926 105.649 27.0166 106.405 26.6086C107.161 26.1886 108.013 25.9786 108.961 25.9786C109.909 25.9786 110.755 26.1886 111.499 26.6086C112.255 27.0166 112.843 27.5926 113.263 28.3366C113.695 29.0686 113.911 29.9026 113.911 30.8386C113.911 31.7746 113.695 32.6146 113.263 33.3586C112.843 34.0906 112.255 34.6666 111.499 35.0866C110.755 35.5066 109.909 35.7166 108.961 35.7166ZM108.961 34.2046C109.573 34.2046 110.119 34.0666 110.599 33.7906C111.091 33.5026 111.475 33.1066 111.751 32.6026C112.027 32.0866 112.165 31.4986 112.165 30.8386C112.165 30.1786 112.027 29.5966 111.751 29.0926C111.475 28.5766 111.091 28.1806 110.599 27.9046C110.119 27.6286 109.573 27.4906 108.961 27.4906C108.349 27.4906 107.797 27.6286 107.305 27.9046C106.825 28.1806 106.441 28.5766 106.153 29.0926C105.877 29.5966 105.739 30.1786 105.739 30.8386C105.739 31.4986 105.877 32.0866 106.153 32.6026C106.441 33.1066 106.825 33.5026 107.305 33.7906C107.797 34.0666 108.349 34.2046 108.961 34.2046ZM127.404 26.0686V35.6086H125.838V28.6426L122.274 34.5286H121.518L117.99 28.6246V35.6086H116.406V26.0686H118.188L121.932 32.5126L125.784 26.0686H127.404ZM134.17 25.9786C135.49 25.9786 136.498 26.3026 137.194 26.9506C137.902 27.5986 138.256 28.5646 138.256 29.8486V35.6086H136.618V34.3486C136.33 34.7926 135.916 35.1346 135.376 35.3746C134.848 35.6026 134.218 35.7166 133.486 35.7166C132.418 35.7166 131.56 35.4586 130.912 34.9426C130.276 34.4266 129.958 33.7486 129.958 32.9086C129.958 32.0686 130.264 31.3966 130.876 30.8926C131.488 30.3766 132.46 30.1186 133.792 30.1186H136.528V29.7766C136.528 29.0326 136.312 28.4626 135.88 28.0666C135.448 27.6706 134.812 27.4726 133.972 27.4726C133.408 27.4726 132.856 27.5686 132.316 27.7606C131.776 27.9406 131.32 28.1866 130.948 28.4986L130.228 27.2026C130.72 26.8066 131.308 26.5066 131.992 26.3026C132.676 26.0866 133.402 25.9786 134.17 25.9786ZM133.774 34.3846C134.434 34.3846 135.004 34.2406 135.484 33.9526C135.964 33.6526 136.312 33.2326 136.528 32.6926V31.3606H133.864C132.4 31.3606 131.668 31.8526 131.668 32.8366C131.668 33.3166 131.854 33.6946 132.226 33.9706C132.598 34.2466 133.114 34.3846 133.774 34.3846ZM148.477 27.5806H144.985V35.6086H143.257V27.5806H139.765V26.0686H148.477V27.5806ZM153.908 35.7166C152.96 35.7166 152.108 35.5066 151.352 35.0866C150.596 34.6666 150.002 34.0906 149.57 33.3586C149.15 32.6146 148.94 31.7746 148.94 30.8386C148.94 29.9026 149.15 29.0686 149.57 28.3366C150.002 27.5926 150.596 27.0166 151.352 26.6086C152.108 26.1886 152.96 25.9786 153.908 25.9786C154.856 25.9786 155.702 26.1886 156.446 26.6086C157.202 27.0166 157.79 27.5926 158.21 28.3366C158.642 29.0686 158.858 29.9026 158.858 30.8386C158.858 31.7746 158.642 32.6146 158.21 33.3586C157.79 34.0906 157.202 34.6666 156.446 35.0866C155.702 35.5066 154.856 35.7166 153.908 35.7166ZM153.908 34.2046C154.52 34.2046 155.066 34.0666 155.546 33.7906C156.038 33.5026 156.422 33.1066 156.698 32.6026C156.974 32.0866 157.112 31.4986 157.112 30.8386C157.112 30.1786 156.974 29.5966 156.698 29.0926C156.422 28.5766 156.038 28.1806 155.546 27.9046C155.066 27.6286 154.52 27.4906 153.908 27.4906C153.296 27.4906 152.744 27.6286 152.252 27.9046C151.772 28.1806 151.388 28.5766 151.1 29.0926C150.824 29.5966 150.686 30.1786 150.686 30.8386C150.686 31.4986 150.824 32.0866 151.1 32.6026C151.388 33.1066 151.772 33.5026 152.252 33.7906C152.744 34.0666 153.296 34.2046 153.908 34.2046ZM169.473 26.0686V35.6086H167.745V27.5806H163.641L163.533 29.7046C163.473 30.9886 163.359 32.0626 163.191 32.9266C163.023 33.7786 162.747 34.4626 162.363 34.9786C161.979 35.4946 161.445 35.7526 160.761 35.7526C160.449 35.7526 160.095 35.6986 159.699 35.5906L159.807 34.1326C159.963 34.1686 160.107 34.1866 160.239 34.1866C160.719 34.1866 161.079 33.9766 161.319 33.5566C161.559 33.1366 161.715 32.6386 161.787 32.0626C161.859 31.4866 161.925 30.6646 161.985 29.5966L162.147 26.0686H169.473ZM176.901 35.7166C175.953 35.7166 175.101 35.5066 174.345 35.0866C173.589 34.6666 172.995 34.0906 172.563 33.3586C172.143 32.6146 171.933 31.7746 171.933 30.8386C171.933 29.9026 172.143 29.0686 172.563 28.3366C172.995 27.5926 173.589 27.0166 174.345 26.6086C175.101 26.1886 175.953 25.9786 176.901 25.9786C177.849 25.9786 178.695 26.1886 179.439 26.6086C180.195 27.0166 180.783 27.5926 181.203 28.3366C181.635 29.0686 181.851 29.9026 181.851 30.8386C181.851 31.7746 181.635 32.6146 181.203 33.3586C180.783 34.0906 180.195 34.6666 179.439 35.0866C178.695 35.5066 177.849 35.7166 176.901 35.7166ZM176.901 34.2046C177.513 34.2046 178.059 34.0666 178.539 33.7906C179.031 33.5026 179.415 33.1066 179.691 32.6026C179.967 32.0866 180.105 31.4986 180.105 30.8386C180.105 30.1786 179.967 29.5966 179.691 29.0926C179.415 28.5766 179.031 28.1806 178.539 27.9046C178.059 27.6286 177.513 27.4906 176.901 27.4906C176.289 27.4906 175.737 27.6286 175.245 27.9046C174.765 28.1806 174.381 28.5766 174.093 29.0926C173.817 29.5966 173.679 30.1786 173.679 30.8386C173.679 31.4986 173.817 32.0866 174.093 32.6026C174.381 33.1066 174.765 33.5026 175.245 33.7906C175.737 34.0666 176.289 34.2046 176.901 34.2046ZM191.366 27.5806H186.074V35.6086H184.346V26.0686H191.366V27.5806ZM193.135 26.0686H194.863V33.0166L200.713 26.0686H202.279V35.6086H200.551V28.6606L194.719 35.6086H193.135V26.0686ZM213.247 26.0686V35.6086H211.519V31.7566C210.487 32.2366 209.461 32.4766 208.441 32.4766C207.253 32.4766 206.335 32.2006 205.687 31.6486C205.039 31.0966 204.715 30.2686 204.715 29.1646V26.0686H206.443V29.0566C206.443 29.7166 206.647 30.2146 207.055 30.5506C207.475 30.8866 208.057 31.0546 208.801 31.0546C209.641 31.0546 210.547 30.8446 211.519 30.4246V26.0686H213.247ZM225.224 30.8926C225.224 31.0246 225.212 31.1986 225.188 31.4146H217.448C217.556 32.2546 217.922 32.9326 218.546 33.4486C219.182 33.9526 219.968 34.2046 220.904 34.2046C222.044 34.2046 222.962 33.8206 223.658 33.0526L224.612 34.1686C224.18 34.6726 223.64 35.0566 222.992 35.3206C222.356 35.5846 221.642 35.7166 220.85 35.7166C219.842 35.7166 218.948 35.5126 218.168 35.1046C217.388 34.6846 216.782 34.1026 216.35 33.3586C215.93 32.6146 215.72 31.7746 215.72 30.8386C215.72 29.9146 215.924 29.0806 216.332 28.3366C216.752 27.5926 217.322 27.0166 218.042 26.6086C218.774 26.1886 219.596 25.9786 220.508 25.9786C221.42 25.9786 222.23 26.1886 222.938 26.6086C223.658 27.0166 224.216 27.5926 224.612 28.3366C225.02 29.0806 225.224 29.9326 225.224 30.8926ZM220.508 27.4366C219.68 27.4366 218.984 27.6886 218.42 28.1926C217.868 28.6966 217.544 29.3566 217.448 30.1726H223.568C223.472 29.3686 223.142 28.7146 222.578 28.2106C222.026 27.6946 221.336 27.4366 220.508 27.4366ZM232.062 35.7166C231.09 35.7166 230.22 35.5066 229.452 35.0866C228.696 34.6666 228.102 34.0906 227.67 33.3586C227.238 32.6146 227.022 31.7746 227.022 30.8386C227.022 29.9026 227.238 29.0686 227.67 28.3366C228.102 27.5926 228.696 27.0166 229.452 26.6086C230.22 26.1886 231.09 25.9786 232.062 25.9786C232.926 25.9786 233.694 26.1526 234.366 26.5006C235.05 26.8486 235.578 27.3526 235.95 28.0126L234.636 28.8586C234.336 28.4026 233.964 28.0606 233.52 27.8326C233.076 27.6046 232.584 27.4906 232.044 27.4906C231.42 27.4906 230.856 27.6286 230.352 27.9046C229.86 28.1806 229.47 28.5766 229.182 29.0926C228.906 29.5966 228.768 30.1786 228.768 30.8386C228.768 31.5106 228.906 32.1046 229.182 32.6206C229.47 33.1246 229.86 33.5146 230.352 33.7906C230.856 34.0666 231.42 34.2046 232.044 34.2046C232.584 34.2046 233.076 34.0906 233.52 33.8626C233.964 33.6346 234.336 33.2926 234.636 32.8366L235.95 33.6646C235.578 34.3246 235.05 34.8346 234.366 35.1946C233.694 35.5426 232.926 35.7166 232.062 35.7166ZM241.896 31.5766H239.916V35.6086H238.188V26.0686H239.916V30.1006H241.932L245.028 26.0686H246.882L243.264 30.6586L247.134 35.6086H245.1L241.896 31.5766ZM248.945 26.0686H250.673V33.0166L256.523 26.0686H258.089V35.6086H256.361V28.6606L250.529 35.6086H248.945V26.0686ZM261.444 26.0686H263.172V33.0166L269.022 26.0686H270.588V35.6086H268.86V28.6606L263.028 35.6086H261.444V26.0686ZM265.908 24.8266C265.02 24.8266 264.33 24.6166 263.838 24.1966C263.346 23.7646 263.094 23.1466 263.082 22.3426H264.252C264.264 22.7866 264.414 23.1466 264.702 23.4226C265.002 23.6866 265.398 23.8186 265.89 23.8186C266.382 23.8186 266.778 23.6866 267.078 23.4226C267.378 23.1466 267.534 22.7866 267.546 22.3426H268.752C268.74 23.1466 268.482 23.7646 267.978 24.1966C267.474 24.6166 266.784 24.8266 265.908 24.8266ZM12.276 45.0086L6.678 55.3946C6.234 56.2226 5.712 56.8406 5.112 57.2486C4.512 57.6566 3.858 57.8606 3.15 57.8606C2.598 57.8606 2.034 57.7346 1.458 57.4826L1.926 56.0426C2.37 56.1986 2.766 56.2766 3.114 56.2766C3.906 56.2766 4.56 55.8566 5.076 55.0166L5.364 54.5666L0.288 45.0086H2.214L6.3 53.0006L10.494 45.0086H12.276ZM13.4865 48.0686H15.2145V52.1186H20.6505V48.0686H22.3785V57.6086H20.6505V53.6126H15.2145V57.6086H13.4865V48.0686ZM25.7385 48.0686H27.4665V55.0166L33.3165 48.0686H34.8825V57.6086H33.1545V50.6606L27.3225 57.6086H25.7385V48.0686ZM44.7345 52.6586C45.9705 52.9706 46.5885 53.7446 46.5885 54.9806C46.5885 55.8206 46.2705 56.4686 45.6345 56.9246C45.0105 57.3806 44.0745 57.6086 42.8265 57.6086H38.2365V48.0686H42.6645C43.7925 48.0686 44.6745 48.2846 45.3105 48.7166C45.9465 49.1366 46.2645 49.7366 46.2645 50.5166C46.2645 51.0206 46.1265 51.4586 45.8505 51.8306C45.5865 52.1906 45.2145 52.4666 44.7345 52.6586ZM39.9285 52.1726H42.5205C43.1805 52.1726 43.6785 52.0526 44.0145 51.8126C44.3625 51.5726 44.5365 51.2246 44.5365 50.7686C44.5365 49.8566 43.8645 49.4006 42.5205 49.4006H39.9285V52.1726ZM42.7005 56.2766C43.4205 56.2766 43.9605 56.1626 44.3205 55.9346C44.6805 55.7066 44.8605 55.3526 44.8605 54.8726C44.8605 54.3806 44.6925 54.0146 44.3565 53.7746C44.0325 53.5346 43.5165 53.4146 42.8085 53.4146H39.9285V56.2766H42.7005ZM57.9151 52.8926C57.9151 53.0246 57.9031 53.1986 57.8791 53.4146H50.1391C50.2471 54.2546 50.6131 54.9326 51.2371 55.4486C51.8731 55.9526 52.6591 56.2046 53.5951 56.2046C54.7351 56.2046 55.6531 55.8206 56.3491 55.0526L57.3031 56.1686C56.8711 56.6726 56.3311 57.0566 55.6831 57.3206C55.0471 57.5846 54.3331 57.7166 53.5411 57.7166C52.5331 57.7166 51.6391 57.5126 50.8591 57.1046C50.0791 56.6846 49.4731 56.1026 49.0411 55.3586C48.6211 54.6146 48.4111 53.7746 48.4111 52.8386C48.4111 51.9146 48.6151 51.0806 49.0231 50.3366C49.4431 49.5926 50.0131 49.0166 50.7331 48.6086C51.4651 48.1886 52.2871 47.9786 53.1991 47.9786C54.1111 47.9786 54.9211 48.1886 55.6291 48.6086C56.3491 49.0166 56.9071 49.5926 57.3031 50.3366C57.7111 51.0806 57.9151 51.9326 57.9151 52.8926ZM53.1991 49.4366C52.3711 49.4366 51.6751 49.6886 51.1111 50.1926C50.5591 50.6966 50.2351 51.3566 50.1391 52.1726H56.2591C56.1631 51.3686 55.8331 50.7146 55.2691 50.2106C54.7171 49.6946 54.0271 49.4366 53.1991 49.4366ZM65.6539 47.9786C66.5779 47.9786 67.4059 48.1826 68.1379 48.5906C68.8699 48.9986 69.4399 49.5686 69.8479 50.3006C70.2679 51.0326 70.4779 51.8786 70.4779 52.8386C70.4779 53.7986 70.2679 54.6506 69.8479 55.3946C69.4399 56.1266 68.8699 56.6966 68.1379 57.1046C67.4059 57.5126 66.5779 57.7166 65.6539 57.7166C64.9699 57.7166 64.3399 57.5846 63.7639 57.3206C63.1999 57.0566 62.7199 56.6726 62.3239 56.1686V61.1006H60.5959V48.0686H62.2519V49.5806C62.6359 49.0526 63.1219 48.6566 63.7099 48.3926C64.2979 48.1166 64.9459 47.9786 65.6539 47.9786ZM65.5099 56.2046C66.1219 56.2046 66.6679 56.0666 67.1479 55.7906C67.6399 55.5026 68.0239 55.1066 68.2999 54.6026C68.5879 54.0866 68.7319 53.4986 68.7319 52.8386C68.7319 52.1786 68.5879 51.5966 68.2999 51.0926C68.0239 50.5766 67.6399 50.1806 67.1479 49.9046C66.6679 49.6286 66.1219 49.4906 65.5099 49.4906C64.9099 49.4906 64.3639 49.6346 63.8719 49.9226C63.3919 50.1986 63.0079 50.5886 62.7199 51.0926C62.4439 51.5966 62.3059 52.1786 62.3059 52.8386C62.3059 53.4986 62.4439 54.0866 62.7199 54.6026C62.9959 55.1066 63.3799 55.5026 63.8719 55.7906C64.3639 56.0666 64.9099 56.2046 65.5099 56.2046ZM77.1465 57.7166C76.1745 57.7166 75.3045 57.5066 74.5365 57.0866C73.7805 56.6666 73.1865 56.0906 72.7545 55.3586C72.3225 54.6146 72.1065 53.7746 72.1065 52.8386C72.1065 51.9026 72.3225 51.0686 72.7545 50.3366C73.1865 49.5926 73.7805 49.0166 74.5365 48.6086C75.3045 48.1886 76.1745 47.9786 77.1465 47.9786C78.0105 47.9786 78.7785 48.1526 79.4505 48.5006C80.1345 48.8486 80.6625 49.3526 81.0345 50.0126L79.7205 50.8586C79.4205 50.4026 79.0485 50.0606 78.6045 49.8326C78.1605 49.6046 77.6685 49.4906 77.1285 49.4906C76.5045 49.4906 75.9405 49.6286 75.4365 49.9046C74.9445 50.1806 74.5545 50.5766 74.2665 51.0926C73.9905 51.5966 73.8525 52.1786 73.8525 52.8386C73.8525 53.5106 73.9905 54.1046 74.2665 54.6206C74.5545 55.1246 74.9445 55.5146 75.4365 55.7906C75.9405 56.0666 76.5045 56.2046 77.1285 56.2046C77.6685 56.2046 78.1605 56.0906 78.6045 55.8626C79.0485 55.6346 79.4205 55.2926 79.7205 54.8366L81.0345 55.6646C80.6625 56.3246 80.1345 56.8346 79.4505 57.1946C78.7785 57.5426 78.0105 57.7166 77.1465 57.7166ZM83.2717 48.0686H84.9997V55.0166L90.8497 48.0686H92.4157V57.6086H90.6877V50.6606L84.8557 57.6086H83.2717V48.0686ZM102.88 49.5806H99.3877V57.6086H97.6597V49.5806H94.1677V48.0686H102.88V49.5806ZM112.847 52.8926C112.847 53.0246 112.835 53.1986 112.811 53.4146H105.071C105.179 54.2546 105.545 54.9326 106.169 55.4486C106.805 55.9526 107.591 56.2046 108.527 56.2046C109.667 56.2046 110.585 55.8206 111.281 55.0526L112.235 56.1686C111.803 56.6726 111.263 57.0566 110.615 57.3206C109.979 57.5846 109.265 57.7166 108.473 57.7166C107.465 57.7166 106.571 57.5126 105.791 57.1046C105.011 56.6846 104.405 56.1026 103.973 55.3586C103.553 54.6146 103.343 53.7746 103.343 52.8386C103.343 51.9146 103.547 51.0806 103.955 50.3366C104.375 49.5926 104.945 49.0166 105.665 48.6086C106.397 48.1886 107.219 47.9786 108.131 47.9786C109.043 47.9786 109.853 48.1886 110.561 48.6086C111.281 49.0166 111.839 49.5926 112.235 50.3366C112.643 51.0806 112.847 51.9326 112.847 52.8926ZM108.131 49.4366C107.303 49.4366 106.607 49.6886 106.043 50.1926C105.491 50.6966 105.167 51.3566 105.071 52.1726H111.191C111.095 51.3686 110.765 50.7146 110.201 50.2106C109.649 49.6946 108.959 49.4366 108.131 49.4366ZM122.233 49.5806H118.741V57.6086H117.013V49.5806H113.521V48.0686H122.233V49.5806ZM128.834 48.0686H130.562V55.0166L136.412 48.0686H137.978V57.6086H136.25V50.6606L130.418 57.6086H128.834V48.0686ZM152.33 48.0686V57.6086H150.764V50.6426L147.2 56.5286H146.444L142.916 50.6246V57.6086H141.332V48.0686H143.114L146.858 54.5126L150.71 48.0686H152.33ZM156.072 57.7166C155.736 57.7166 155.448 57.6026 155.208 57.3746C154.968 57.1346 154.848 56.8346 154.848 56.4746C154.848 56.1266 154.968 55.8386 155.208 55.6106C155.448 55.3706 155.736 55.2506 156.072 55.2506C156.408 55.2506 156.69 55.3646 156.918 55.5926C157.146 55.8206 157.26 56.1146 157.26 56.4746C157.26 56.8346 157.14 57.1346 156.9 57.3746C156.672 57.6026 156.396 57.7166 156.072 57.7166ZM173.084 54.4586H166.388L165.002 57.6086H163.148L168.854 45.0086H170.636L176.36 57.6086H174.47L173.084 54.4586ZM172.454 53.0186L169.736 46.8446L167.018 53.0186H172.454ZM179.222 57.7166C178.886 57.7166 178.598 57.6026 178.358 57.3746C178.118 57.1346 177.998 56.8346 177.998 56.4746C177.998 56.1266 178.118 55.8386 178.358 55.6106C178.598 55.3706 178.886 55.2506 179.222 55.2506C179.558 55.2506 179.84 55.3646 180.068 55.5926C180.296 55.8206 180.41 56.1146 180.41 56.4746C180.41 56.8346 180.29 57.1346 180.05 57.3746C179.822 57.6026 179.546 57.7166 179.222 57.7166ZM183.21 45.0086H184.992V54.7286L192.444 45.0086H194.1V57.6086H192.336V47.9066L184.866 57.6086H183.21V45.0086ZM198.118 57.7166C197.782 57.7166 197.494 57.6026 197.254 57.3746C197.014 57.1346 196.894 56.8346 196.894 56.4746C196.894 56.1266 197.014 55.8386 197.254 55.6106C197.494 55.3706 197.782 55.2506 198.118 55.2506C198.454 55.2506 198.736 55.3646 198.964 55.5926C199.192 55.8206 199.306 56.1146 199.306 56.4746C199.306 56.8346 199.186 57.1346 198.946 57.3746C198.718 57.6026 198.442 57.7166 198.118 57.7166ZM216.085 56.0426V57.6086H206.941V45.0086H215.833V46.5746H208.741V50.4446H215.059V51.9746H208.741V56.0426H216.085ZM225.121 52.6586C226.357 52.9706 226.975 53.7446 226.975 54.9806C226.975 55.8206 226.657 56.4686 226.021 56.9246C225.397 57.3806 224.461 57.6086 223.213 57.6086H218.623V48.0686H223.051C224.179 48.0686 225.061 48.2846 225.697 48.7166C226.333 49.1366 226.651 49.7366 226.651 50.5166C226.651 51.0206 226.513 51.4586 226.237 51.8306C225.973 52.1906 225.601 52.4666 225.121 52.6586ZM220.315 52.1726H222.907C223.567 52.1726 224.065 52.0526 224.401 51.8126C224.749 51.5726 224.923 51.2246 224.923 50.7686C224.923 49.8566 224.251 49.4006 222.907 49.4006H220.315V52.1726ZM223.087 56.2766C223.807 56.2766 224.347 56.1626 224.707 55.9346C225.067 55.7066 225.247 55.3526 225.247 54.8726C225.247 54.3806 225.079 54.0146 224.743 53.7746C224.419 53.5346 223.903 53.4146 223.195 53.4146H220.315V56.2766H223.087ZM239.382 56.0966V59.8226H237.762V57.6086H229.788V59.8226H228.15V56.0966H228.654C229.266 56.0606 229.686 55.6286 229.914 54.8006C230.142 53.9726 230.298 52.8026 230.382 51.2906L230.526 48.0686H237.924V56.0966H239.382ZM231.966 51.4166C231.918 52.6166 231.816 53.6126 231.66 54.4046C231.516 55.1846 231.246 55.7486 230.85 56.0966H236.196V49.5806H232.056L231.966 51.4166ZM245.719 57.7166C244.771 57.7166 243.919 57.5066 243.163 57.0866C242.407 56.6666 241.813 56.0906 241.381 55.3586C240.961 54.6146 240.751 53.7746 240.751 52.8386C240.751 51.9026 240.961 51.0686 241.381 50.3366C241.813 49.5926 242.407 49.0166 243.163 48.6086C243.919 48.1886 244.771 47.9786 245.719 47.9786C246.667 47.9786 247.513 48.1886 248.257 48.6086C249.013 49.0166 249.601 49.5926 250.021 50.3366C250.453 51.0686 250.669 51.9026 250.669 52.8386C250.669 53.7746 250.453 54.6146 250.021 55.3586C249.601 56.0906 249.013 56.6666 248.257 57.0866C247.513 57.5066 246.667 57.7166 245.719 57.7166ZM245.719 56.2046C246.331 56.2046 246.877 56.0666 247.357 55.7906C247.849 55.5026 248.233 55.1066 248.509 54.6026C248.785 54.0866 248.923 53.4986 248.923 52.8386C248.923 52.1786 248.785 51.5966 248.509 51.0926C248.233 50.5766 247.849 50.1806 247.357 49.9046C246.877 49.6286 246.331 49.4906 245.719 49.4906C245.107 49.4906 244.555 49.6286 244.063 49.9046C243.583 50.1806 243.199 50.5766 242.911 51.0926C242.635 51.5966 242.497 52.1786 242.497 52.8386C242.497 53.4986 242.635 54.0866 242.911 54.6026C243.199 55.1066 243.583 55.5026 244.063 55.7906C244.555 56.0666 245.107 56.2046 245.719 56.2046ZM256.872 53.5766H254.892V57.6086H253.164V48.0686H254.892V52.1006H256.908L260.004 48.0686H261.858L258.24 52.6586L262.11 57.6086H260.076L256.872 53.5766ZM263.922 48.0686H265.65V55.0166L271.5 48.0686H273.066V57.6086H271.338V50.6606L265.506 57.6086H263.922V48.0686ZM287.418 48.0686V57.6086H285.852V50.6426L282.288 56.5286H281.532L278.004 50.6246V57.6086H276.42V48.0686H278.202L281.946 54.5126L285.798 48.0686H287.418ZM294.867 57.7166C293.919 57.7166 293.067 57.5066 292.311 57.0866C291.555 56.6666 290.961 56.0906 290.529 55.3586C290.109 54.6146 289.899 53.7746 289.899 52.8386C289.899 51.9026 290.109 51.0686 290.529 50.3366C290.961 49.5926 291.555 49.0166 292.311 48.6086C293.067 48.1886 293.919 47.9786 294.867 47.9786C295.815 47.9786 296.661 48.1886 297.405 48.6086C298.161 49.0166 298.749 49.5926 299.169 50.3366C299.601 51.0686 299.817 51.9026 299.817 52.8386C299.817 53.7746 299.601 54.6146 299.169 55.3586C298.749 56.0906 298.161 56.6666 297.405 57.0866C296.661 57.5066 295.815 57.7166 294.867 57.7166ZM294.867 56.2046C295.479 56.2046 296.025 56.0666 296.505 55.7906C296.997 55.5026 297.381 55.1066 297.657 54.6026C297.933 54.0866 298.071 53.4986 298.071 52.8386C298.071 52.1786 297.933 51.5966 297.657 51.0926C297.381 50.5766 296.997 50.1806 296.505 49.9046C296.025 49.6286 295.479 49.4906 294.867 49.4906C294.255 49.4906 293.703 49.6286 293.211 49.9046C292.731 50.1806 292.347 50.5766 292.059 51.0926C291.783 51.5966 291.645 52.1786 291.645 52.8386C291.645 53.4986 291.783 54.0866 292.059 54.6026C292.347 55.1066 292.731 55.5026 293.211 55.7906C293.703 56.0666 294.255 56.2046 294.867 56.2046ZM308.811 52.6586C310.047 52.9706 310.665 53.7446 310.665 54.9806C310.665 55.8206 310.347 56.4686 309.711 56.9246C309.087 57.3806 308.151 57.6086 306.903 57.6086H302.313V48.0686H306.741C307.869 48.0686 308.751 48.2846 309.387 48.7166C310.023 49.1366 310.341 49.7366 310.341 50.5166C310.341 51.0206 310.203 51.4586 309.927 51.8306C309.663 52.1906 309.291 52.4666 308.811 52.6586ZM304.005 52.1726H306.597C307.257 52.1726 307.755 52.0526 308.091 51.8126C308.439 51.5726 308.613 51.2246 308.613 50.7686C308.613 49.8566 307.941 49.4006 306.597 49.4006H304.005V52.1726ZM306.777 56.2766C307.497 56.2766 308.037 56.1626 308.397 55.9346C308.757 55.7066 308.937 55.3526 308.937 54.8726C308.937 54.3806 308.769 54.0146 308.433 53.7746C308.109 53.5346 307.593 53.4146 306.885 53.4146H304.005V56.2766H306.777ZM316.771 47.9786C318.091 47.9786 319.099 48.3026 319.795 48.9506C320.503 49.5986 320.857 50.5646 320.857 51.8486V57.6086H319.219V56.3486C318.931 56.7926 318.517 57.1346 317.977 57.3746C317.449 57.6026 316.819 57.7166 316.087 57.7166C315.019 57.7166 314.161 57.4586 313.513 56.9426C312.877 56.4266 312.559 55.7486 312.559 54.9086C312.559 54.0686 312.865 53.3966 313.477 52.8926C314.089 52.3766 315.061 52.1186 316.393 52.1186H319.129V51.7766C319.129 51.0326 318.913 50.4626 318.481 50.0666C318.049 49.6706 317.413 49.4726 316.573 49.4726C316.009 49.4726 315.457 49.5686 314.917 49.7606C314.377 49.9406 313.921 50.1866 313.549 50.4986L312.829 49.2026C313.321 48.8066 313.909 48.5066 314.593 48.3026C315.277 48.0866 316.003 47.9786 316.771 47.9786ZM316.375 56.3846C317.035 56.3846 317.605 56.2406 318.085 55.9526C318.565 55.6526 318.913 55.2326 319.129 54.6926V53.3606H316.465C315.001 53.3606 314.269 53.8526 314.269 54.8366C314.269 55.3166 314.455 55.6946 314.827 55.9706C315.199 56.2466 315.715 56.3846 316.375 56.3846Z" fill="#0E0E0E"/>
</svg>
