<svg width="26" height="26" viewBox="0 0 26 26" fill="none" xmlns="http://www.w3.org/2000/svg">
<path d="M25.74 4.57764e-05H0.26C0.117 4.57764e-05 0 0.133 0 0.2955V2.65914C0 2.82164 0.117 2.95459 0.26 2.95459H25.74C25.883 2.95459 26 2.82164 26 2.65914V0.2955C26 0.133 25.883 4.57764e-05 25.74 4.57764e-05ZM25.74 23.0455H0.26C0.117 23.0455 0 23.1785 0 23.341V25.7046C0 25.8671 0.117 26 0.26 26H25.74C25.883 26 26 25.8671 26 25.7046V23.341C26 23.1785 25.883 23.0455 25.74 23.0455ZM25.74 11.5228H0.26C0.117 11.5228 0 11.6557 0 11.8182V14.1819C0 14.3444 0.117 14.4773 0.26 14.4773H25.74C25.883 14.4773 26 14.3444 26 14.1819V11.8182C26 11.6557 25.883 11.5228 25.74 11.5228Z" fill="#0E0E0E"/>
</svg>
