<svg width="108" height="123" viewBox="0 0 108 123" fill="none" xmlns="http://www.w3.org/2000/svg">
<path fill-rule="evenodd" clip-rule="evenodd" d="M14.615 49.6124C13.9458 48.8665 13.3788 48.085 12.9293 47.2676V31.0179L49.2343 50.4501L89.3452 33.6028V47.2676C88.9671 48.0339 88.4818 48.7695 87.8944 49.4693C89.6414 54.312 89.8969 60.0589 89.9326 62.8685C96.2108 60.6362 102.182 65.8978 102.182 75.5986C102.182 91.9862 89.6057 96.1189 89.1 96.3027C76.7684 120.7 57.0399 122.595 51.2777 122.595C45.5155 122.595 25.787 120.695 13.4605 96.3027C12.9497 96.1189 0.367802 91.9862 0.367802 75.5577C0.367802 65.3257 6.95247 60.6566 12.6279 62.889C12.6636 60.0743 12.9139 54.4142 14.615 49.6124ZM83.68 53.0299C75.4045 58.3017 61.0449 60.815 51.1347 60.815C40.3713 60.815 26.9415 58.2557 18.8549 53.1116C18.058 56.2839 17.6238 59.7422 17.6238 63.4969C17.6238 66.1941 15.4528 68.1863 13.0416 68.1863C12.4235 68.1863 11.7952 68.0535 11.1771 67.7777C10.8706 67.6295 10.4006 67.5172 9.86935 67.5172C9.29721 67.5172 8.66377 67.65 8.11207 68.0229C3.52477 71.0624 4.00495 87.6288 15.228 91.5111C16.3467 91.8993 17.2867 92.7269 17.8282 93.815C28.8622 115.776 46.2153 117.487 51.2777 117.487C56.335 117.487 73.6983 115.776 84.7221 93.815C85.2738 92.7269 86.2086 91.8993 87.3274 91.5111C98.5504 87.6288 99.0306 71.0624 94.4433 68.0229C92.5788 66.7713 91.2148 68.1863 89.5188 68.1863C87.1077 68.1863 84.9315 66.2043 84.9315 63.4969C84.9315 59.7116 84.4973 56.2226 83.68 53.0299ZM107.275 51.1244H92.0015L97.1712 40.8975L97.0945 24.847L49.5051 44.8054L0 18.6506L53.3874 0L102.182 22.7118V40.8975L107.275 51.1244Z" fill="#001959"/>
</svg>
