<svg width="72" height="123" viewBox="0 0 72 123" fill="none" xmlns="http://www.w3.org/2000/svg">
<path fill-rule="evenodd" clip-rule="evenodd" d="M51.6862 25.5089C51.6862 25.5089 60.3184 35.84 63.257 39.3399C69.4455 46.7936 71.2821 51.125 71.425 60.5684V112.239C71.3485 117.821 67.0426 122.244 61.6041 122.438C44.4212 122.657 27.2384 122.657 10.0556 122.438C4.5814 122.244 0.0357125 117.759 0 112.239V60.5378C0.0459161 50.1301 2.99475 45.6355 9.93828 37.5389C12.9534 34.0238 19.8408 25.5089 19.8408 25.5089H51.6862ZM61.2214 102.036H10.2036V112.239H61.2214V102.036ZM40.8143 66.3232H30.6107V76.5268H20.4071V86.7304H30.6107V96.9339H40.8143V86.7304H51.1352L51.0179 76.5268H40.8143V66.3232ZM47.166 35.7125H24.4273C21.1928 39.7276 18.1828 43.4774 16.8308 45.1865C11.5964 51.8188 10.2342 54.4054 10.2036 61.2214H61.2214C61.1551 54.3544 60.2827 52.2576 55.4207 45.8753C54.0534 44.0743 50.6811 39.9725 47.166 35.7125ZM56.1196 20.4071H15.3054V5.10179C15.3054 2.2856 17.591 0 20.4071 0H51.0179C53.834 0 56.1196 2.2856 56.1196 5.10179V20.4071Z" fill="#001959"/>
</svg>
