<svg width="113" height="123" viewBox="0 0 113 123" fill="none" xmlns="http://www.w3.org/2000/svg">
<path fill-rule="evenodd" clip-rule="evenodd" d="M56.1927 113.642C54.0063 113.642 50.5786 110.02 47.5697 102.015C44.6119 103.522 42.0424 104.707 39.5444 105.785C43.4625 115.961 49.0358 122.602 56.1927 122.602C63.5489 122.602 69.2294 115.599 73.1629 104.968C70.6853 103.941 68.0698 102.771 65.0865 101.295C62.0266 109.811 58.4558 113.642 56.1927 113.642ZM32.1371 102.322C16.3061 108.14 0.00510867 108.288 0.00510867 93.9235C0.00510867 89.1267 2.22728 82.3938 9.17985 73.0709C12.1478 69.0915 15.5858 65.1784 19.0749 61.5872C26.8959 53.6436 35.7079 46.0065 47.1968 38.0935C41.6644 35.0489 35.6313 32.132 29.7464 29.9711C23.7184 27.749 18.4108 26.5178 14.3445 26.5178C11.7494 26.5178 9.8184 27.0644 9.19007 27.9891C8.51064 28.9699 8.4851 31.9941 11.4633 37.4039L12.5361 37.3375C17.8846 37.3375 22.2319 41.7614 22.2319 47.2121C22.2319 52.6628 17.8846 57.0765 12.5361 57.0765C7.18245 57.0765 2.8454 52.6628 2.8454 47.2121C2.8454 45.4446 3.30005 43.7894 4.09696 42.354C1.08299 37.0412 0 32.8523 0 29.5676C0 21.8283 5.89513 17.5423 14.3445 17.5423C27.1871 17.5423 44.4842 26.0325 55.6308 32.5918C66.9409 25.629 84.8357 16.4542 98.0512 16.4542C107.721 16.4542 112.391 21.8385 112.391 28.6889C112.391 33.4857 110.163 40.2135 103.216 49.5313C87.4614 70.6649 56.1365 93.4944 32.1371 102.322ZM108.34 80.33C109.065 78.9507 109.463 77.3876 109.463 75.7222C109.463 70.2664 105.126 65.8476 99.7728 65.8476C94.4191 65.8476 90.0821 70.2664 90.0821 75.7222C90.0821 81.1678 94.4191 85.5815 99.7728 85.5815L101.091 85.4946C103.911 90.7257 103.87 93.6528 103.211 94.6234C102.577 95.548 100.651 96.0895 98.0512 96.0895C89.8675 96.0895 78.4706 91.2672 71.1298 87.6249C68.6777 89.3719 65.6382 91.446 62.6651 93.3412C72.4988 98.6335 86.9659 105.065 98.0512 105.065C106.429 105.065 112.396 100.825 112.396 93.0398C112.396 89.7806 111.318 85.607 108.34 80.33ZM42.778 80.9379H42.7729L42.7065 80.8868C36.8624 76.749 31.1001 72.2025 25.7618 67.4466C11.3714 82.1435 7.31527 92.7997 9.22072 95.6655C9.86438 96.631 11.7341 97.1929 14.3445 97.1929C26.3493 97.1929 45.4037 86.8841 56.678 79.4922C70.5168 70.4248 86.3069 57.383 96.1968 44.1113C103.89 33.8025 104.125 28.3722 103.175 26.9418C102.531 25.9712 100.667 25.4195 98.0512 25.4195C88.0796 25.4195 72.8973 32.8727 64.1517 37.9199C70.6036 42.1905 76.6316 46.7012 82.1333 51.2835C80.0491 53.4035 77.8729 55.4673 75.6456 57.4698C69.536 52.4533 62.752 47.5288 55.7177 43.1151C47.6412 48.4075 39.5086 54.6295 32.2035 61.2603C37.6951 66.1184 44.239 71.2166 51.212 75.9368C48.5454 77.6277 45.8533 79.2419 42.778 80.9379ZM56.1927 51.0843C61.8324 51.0843 66.4096 55.6614 66.4096 61.3011C66.4096 66.9408 61.8324 71.518 56.1927 71.518C50.553 71.518 45.9759 66.9408 45.9759 61.3011C45.9759 55.6614 50.553 51.0843 56.1927 51.0843ZM47.3092 21.3124C44.3463 19.8565 41.7154 18.6662 39.2327 17.6445C43.1662 7.00876 48.8468 0 56.1927 0C63.3599 0 68.9383 6.65117 72.8513 16.8169C70.3482 17.8999 67.7633 19.1004 64.8209 20.5921C61.8222 12.5872 58.3945 8.9704 56.1927 8.9704C53.9399 8.9704 50.3742 12.8017 47.3092 21.3124Z" fill="#001959"/>
</svg>
