<svg width="23" height="24" viewBox="0 0 23 24" fill="none" xmlns="http://www.w3.org/2000/svg">
<path d="M21.4246 19.2628C20.8652 17.9378 20.0535 16.7343 19.0345 15.7192C18.0187 14.7013 16.8154 13.8896 15.491 13.3292C15.4791 13.3232 15.4672 13.3203 15.4554 13.3144C17.3028 11.98 18.5037 9.80636 18.5037 7.35404C18.5037 3.29153 15.2122 1.52588e-05 11.1497 1.52588e-05C7.08722 1.52588e-05 3.7957 3.29153 3.7957 7.35404C3.7957 9.80636 4.99666 11.98 6.84406 13.3173C6.8322 13.3232 6.82034 13.3262 6.80847 13.3321C5.48001 13.8926 4.28794 14.6962 3.2649 15.7222C2.24693 16.738 1.43531 17.9414 0.874847 19.2658C0.324251 20.5624 0.0273016 21.9525 7.41511e-05 23.3609C-0.000717311 23.3925 0.00483387 23.424 0.0164008 23.4535C0.0279676 23.483 0.0453161 23.5098 0.0674239 23.5325C0.0895318 23.5551 0.115952 23.5732 0.145127 23.5854C0.174302 23.5977 0.205642 23.6041 0.237301 23.604H2.0165C2.14697 23.604 2.25076 23.5003 2.25373 23.3728C2.31303 21.0835 3.23228 18.9396 4.85729 17.3146C6.53863 15.6332 8.77152 14.7081 11.1497 14.7081C13.5279 14.7081 15.7608 15.6332 17.4422 17.3146C19.0672 18.9396 19.9864 21.0835 20.0457 23.3728C20.0487 23.5032 20.1525 23.604 20.2829 23.604H22.0621C22.0938 23.6041 22.1251 23.5977 22.1543 23.5854C22.1835 23.5732 22.2099 23.5551 22.232 23.5325C22.2541 23.5098 22.2715 23.483 22.283 23.4535C22.2946 23.424 22.3002 23.3925 22.2994 23.3609C22.2697 21.9435 21.9761 20.5646 21.4246 19.2628ZM11.1497 12.4544C9.78863 12.4544 8.50761 11.9236 7.54388 10.9599C6.58014 9.99615 6.04935 8.71512 6.04935 7.35404C6.04935 5.99295 6.58014 4.71193 7.54388 3.74819C8.50761 2.78446 9.78863 2.25367 11.1497 2.25367C12.5108 2.25367 13.7918 2.78446 14.7556 3.74819C15.7193 4.71193 16.2501 5.99295 16.2501 7.35404C16.2501 8.71512 15.7193 9.99615 14.7556 10.9599C13.7918 11.9236 12.5108 12.4544 11.1497 12.4544Z" fill="#0E0E0E"/>
</svg>
